<?xml version="1.0" standalone="no"?>
<!DOCTYPE svg PUBLIC "-//W3C//DTD SVG 20010904//EN"
 "http://www.w3.org/TR/2001/REC-SVG-20010904/DTD/svg10.dtd">
<svg version="1.0" xmlns="http://www.w3.org/2000/svg"
 width="979.000000pt" height="1280.000000pt" viewBox="0 0 979.000000 1280.000000"
 preserveAspectRatio="xMidYMid meet">
<metadata>
Created by potrace 1.15, written by Peter Selinger 2001-2017
</metadata>
<g transform="translate(0.000000,1280.000000) scale(0.100000,-0.100000)"
fill="#000000" stroke="none">
<path d="M4383 12786 l-122 -11 -56 -55 c-31 -30 -66 -73 -78 -95 l-22 -40
-115 -1 c-129 -1 -154 -8 -234 -71 -44 -34 -52 -46 -73 -113 -16 -53 -23 -100
-23 -160 0 -58 -10 -126 -30 -214 -26 -112 -30 -149 -30 -270 0 -138 1 -142
30 -191 45 -76 41 -112 -21 -196 l-51 -69 55 -66 c55 -66 67 -96 67 -177 0
-29 9 -49 36 -82 34 -42 35 -45 20 -67 -24 -33 -21 -84 6 -102 12 -9 30 -16
39 -16 12 0 18 -13 23 -56 7 -64 26 -106 58 -128 35 -25 157 -21 277 10 57 14
105 23 109 20 15 -15 -57 -62 -248 -164 -197 -104 -495 -274 -514 -292 -5 -5
-23 -53 -41 -107 -19 -58 -63 -154 -110 -238 l-77 -140 24 -86 25 -87 -25 -48
c-14 -27 -62 -113 -109 -191 -47 -81 -116 -219 -159 -320 -53 -124 -86 -188
-109 -212 -33 -33 -35 -34 -107 -32 -40 2 -113 6 -162 9 l-90 7 3 67 c2 69
-11 111 -50 153 -10 12 -38 65 -61 119 -43 98 -44 99 -126 159 l-83 60 -30
-29 c-16 -15 -27 -34 -25 -41 6 -16 5 -16 -29 -3 -25 9 -34 3 -133 -87 -59
-54 -122 -110 -140 -125 -26 -22 -32 -34 -32 -67 0 -22 -12 -101 -26 -175
l-26 -136 43 -69 c24 -38 80 -111 124 -161 l80 -92 103 6 103 7 61 -54 c54
-48 86 -65 279 -146 l219 -91 178 0 177 1 124 89 124 89 88 211 c48 117 90
214 92 216 2 3 29 -15 58 -39 l54 -44 63 -454 c34 -250 74 -548 87 -664 13
-115 34 -273 45 -350 19 -129 20 -155 10 -332 l-11 -193 40 -57 c44 -63 52
-97 90 -385 l18 -138 -73 -50 c-56 -39 -89 -54 -154 -69 -45 -10 -85 -23 -90
-27 -11 -12 -51 -194 -45 -204 9 -15 -117 -140 -203 -202 -48 -34 -269 -198
-492 -364 l-406 -303 -86 -110 c-48 -61 -96 -128 -108 -151 -15 -30 -45 -56
-123 -109 -74 -50 -113 -84 -144 -126 -38 -53 -42 -63 -49 -143 -6 -76 -3 -98
21 -191 32 -118 33 -153 18 -356 -11 -135 -22 -205 -83 -535 -16 -85 -34 -209
-40 -275 -6 -66 -29 -217 -51 -335 -36 -196 -50 -247 -159 -575 -101 -301
-132 -383 -194 -503 -41 -79 -89 -159 -106 -177 l-33 -34 -49 25 c-28 14 -51
24 -52 22 -2 -2 -36 -59 -76 -127 -41 -67 -83 -129 -94 -136 -64 -38 -503
-264 -566 -290 l-74 -32 -111 33 c-87 27 -128 33 -197 34 l-88 0 -46 -62 c-25
-35 -54 -80 -65 -100 l-19 -37 43 -73 c40 -69 50 -78 160 -150 107 -71 133
-83 307 -142 164 -56 211 -68 345 -86 l156 -20 147 39 c221 60 241 62 557 51
154 -5 297 -10 318 -10 l37 0 70 146 c39 80 70 150 70 155 0 5 -21 51 -46 102
l-47 92 13 139 c11 118 11 140 -1 147 -45 27 -44 20 -25 146 l18 118 103 185
c192 345 480 901 605 1165 114 242 160 494 186 1015 l7 145 40 60 c22 33 63
89 92 125 47 59 59 68 121 89 45 16 123 61 223 128 84 57 219 143 300 190 305
181 523 334 729 512 51 44 65 52 73 40 5 -8 45 -84 88 -169 44 -86 151 -277
238 -425 136 -231 178 -294 295 -437 75 -92 194 -243 264 -335 207 -272 258
-328 343 -375 l75 -42 245 -7 c136 -4 262 -12 281 -17 19 -5 96 -34 170 -65
126 -51 357 -130 565 -192 50 -15 155 -52 235 -82 80 -30 224 -79 320 -108
299 -91 318 -100 580 -260 178 -108 281 -179 378 -258 72 -60 132 -113 132
-118 0 -4 -9 -23 -20 -42 l-20 -34 128 -124 c70 -68 178 -169 239 -224 l111
-100 21 -110 c11 -60 26 -200 33 -310 l12 -200 60 -93 61 -92 50 2 50 3 67 98
c45 65 89 147 128 239 l60 140 0 136 c0 258 -18 466 -50 601 -30 123 -30 127
-24 320 5 161 2 230 -15 390 l-21 193 -67 84 c-62 76 -72 84 -116 94 -26 5
-55 10 -63 10 -27 0 -92 -39 -113 -69 -18 -25 -36 -33 -129 -55 -60 -14 -116
-26 -126 -26 -9 0 -55 16 -102 35 -46 19 -87 35 -90 35 -3 0 -3 -17 1 -38 l6
-39 -173 88 c-166 85 -179 94 -326 222 -126 111 -180 151 -315 230 -89 52
-182 103 -207 113 -25 10 -99 61 -165 114 -216 174 -246 189 -547 274 -193 55
-292 77 -371 86 -127 13 -219 45 -331 114 l-74 47 -80 162 c-44 89 -106 223
-137 297 -32 74 -104 227 -160 340 -79 158 -255 562 -255 586 0 2 11 4 24 4
28 0 25 -9 66 170 18 79 39 220 52 340 l21 205 -46 340 -46 340 -84 240 c-48
137 -100 267 -122 302 -36 61 -37 64 -27 120 8 50 7 65 -15 127 -13 39 -27 99
-30 134 -5 54 -10 66 -34 83 -28 20 -28 20 -14 67 9 29 12 65 9 94 -5 36 -1
61 14 100 14 37 22 84 25 153 4 98 5 102 64 226 49 101 62 139 67 195 8 85 99
314 128 322 15 4 18 16 18 78 l0 73 61 76 c34 43 74 109 91 148 16 40 33 76
38 80 4 5 22 -1 41 -12 33 -20 34 -20 54 -1 20 19 23 18 451 -206 l431 -224
-18 -123 c-10 -67 -28 -237 -39 -377 -11 -140 -30 -326 -41 -413 l-20 -159
-69 -138 -69 -139 -78 25 c-46 14 -103 24 -138 24 -59 0 -62 -2 -101 -42 -23
-24 -69 -80 -102 -125 -34 -44 -84 -98 -111 -120 -49 -37 -50 -40 -51 -90 0
-49 2 -53 38 -79 l39 -28 -114 -89 -113 -90 0 -70 0 -70 80 6 79 6 62 -77 c35
-42 64 -78 65 -80 1 -2 21 2 44 9 46 14 41 16 85 -44 13 -18 16 -18 90 2 66
18 86 20 133 11 l56 -10 85 57 c46 32 122 94 168 137 70 66 92 95 129 168 35
70 44 98 44 140 0 76 27 172 76 270 39 78 44 95 44 157 0 74 21 143 139 450
58 151 105 326 161 606 21 105 48 226 59 269 12 44 21 108 21 142 0 57 -4 68
-43 126 -50 73 -251 255 -433 393 -67 50 -230 156 -363 235 -232 140 -240 145
-238 174 2 28 -10 39 -143 143 -195 152 -284 200 -500 269 -683 217 -756 243
-768 269 -7 14 -12 31 -12 38 1 10 589 251 596 244 1 -1 -14 -94 -33 -206 -30
-169 -33 -205 -22 -212 8 -5 16 -9 19 -9 3 0 35 59 70 130 35 72 67 130 71
130 4 0 10 -12 14 -27 3 -16 24 -85 47 -155 33 -105 44 -128 59 -128 10 0 19
6 18 13 0 6 -26 135 -58 286 l-57 274 38 241 c33 205 38 255 33 336 -7 110
-29 269 -54 391 -16 79 -21 89 -61 125 -55 51 -128 97 -217 139 l-72 33 -123
-39 c-68 -21 -123 -39 -124 -39 0 0 -31 65 -69 145 l-68 144 -101 70 c-92 65
-116 76 -281 131 -99 33 -191 59 -205 59 -14 -1 -80 -7 -147 -13z m1028 -827
c5 -8 9 -53 9 -101 0 -82 -2 -91 -51 -200 -62 -137 -139 -238 -201 -262 -83
-34 -63 4 48 89 49 38 86 75 97 98 24 48 25 143 3 256 -9 46 -16 97 -16 113
l0 31 51 -5 c28 -3 55 -12 60 -19z"/>
</g>
</svg>
