<?xml version="1.0" standalone="no"?>
<!DOCTYPE svg PUBLIC "-//W3C//DTD SVG 20010904//EN"
 "http://www.w3.org/TR/2001/REC-SVG-20010904/DTD/svg10.dtd">
<svg version="1.0" xmlns="http://www.w3.org/2000/svg"
 width="755.000000pt" height="1280.000000pt" viewBox="0 0 755.000000 1280.000000"
 preserveAspectRatio="xMidYMid meet">
<metadata>
Created by potrace 1.15, written by Peter Selinger 2001-2017
</metadata>
<g transform="translate(0.000000,1280.000000) scale(0.100000,-0.100000)"
fill="#000000" stroke="none">
<path d="M3150 12770 c-145 -40 -276 -107 -349 -178 -70 -68 -125 -160 -109
-179 19 -23 36 -14 107 56 178 176 348 253 556 255 100 1 100 1 103 27 2 19
-3 28 -23 37 -46 21 -171 13 -285 -18z"/>
<path d="M5506 12671 c-14 -21 11 -43 90 -80 246 -116 401 -289 448 -503 5
-21 12 -28 31 -28 29 0 49 31 40 63 -58 197 -239 427 -398 504 -93 46 -197 67
-211 44z"/>
<path d="M3244 12450 c-88 -23 -170 -64 -249 -123 -85 -64 -141 -139 -129
-171 14 -37 57 -12 221 130 74 65 117 84 188 84 59 0 108 17 135 45 51 54 -29
71 -166 35z"/>
<path d="M5327 12423 c-4 -3 -7 -15 -7 -25 0 -20 39 -48 189 -133 l106 -60 46
-90 c50 -95 77 -125 114 -125 37 0 35 28 -7 111 -48 95 -128 184 -216 242 -94
62 -204 101 -225 80z"/>
<path d="M3760 12247 c-41 -13 -92 -31 -114 -40 -123 -53 -316 -229 -316 -288
0 -47 -38 -74 -142 -99 -74 -19 -100 -31 -141 -64 -94 -77 -164 -215 -138
-273 18 -39 13 -51 -26 -72 -21 -10 -45 -27 -54 -37 -19 -21 -59 -156 -59
-197 0 -44 37 -142 80 -211 65 -107 91 -165 97 -217 5 -45 3 -54 -26 -94 -108
-151 -113 -305 -14 -415 43 -48 122 -94 182 -106 27 -6 31 -11 37 -53 30 -209
162 -421 322 -518 l33 -20 -50 -17 c-28 -9 -72 -30 -98 -46 -45 -29 -103 -40
-103 -20 0 17 -74 48 -143 61 -51 10 -85 10 -148 1 -115 -17 -234 -50 -261
-74 -13 -11 -46 -35 -74 -53 -36 -23 -56 -44 -67 -71 -8 -22 -37 -62 -64 -90
-103 -110 -177 -298 -242 -618 -38 -183 -68 -280 -89 -287 -15 -6 -192 -378
-192 -404 0 -23 33 -78 81 -133 37 -42 39 -89 5 -121 l-24 -22 -60 20 c-34 11
-122 34 -197 52 -130 32 -136 34 -159 70 -33 49 -100 91 -188 118 -40 12 -104
32 -141 43 -81 25 -135 62 -178 121 -17 23 -38 45 -47 49 -28 11 -106 8 -132
-5 -54 -27 -66 -173 -20 -237 12 -17 19 -34 16 -37 -3 -4 -45 4 -93 17 -117
31 -219 40 -245 22 -34 -24 -211 -82 -253 -82 -22 -1 -50 -6 -63 -14 -45 -24
-130 -117 -160 -174 -78 -148 -96 -284 -89 -685 5 -297 8 -324 62 -642 14 -82
29 -186 32 -230 3 -45 18 -118 34 -167 16 -48 29 -95 29 -105 0 -36 21 -91 36
-97 20 -8 51 9 58 32 4 11 -3 48 -14 84 -49 160 -115 547 -140 825 -16 174 -8
565 14 693 30 174 56 262 94 316 40 58 87 94 122 94 23 0 23 -1 16 -77 -3 -46
-1 -94 5 -116 21 -78 114 -148 175 -133 23 6 24 5 24 -54 0 -65 12 -100 34
-100 14 0 26 -42 26 -90 0 -55 69 -83 136 -55 48 20 108 12 128 -17 13 -18 21
-19 66 -13 46 6 54 4 76 -16 38 -35 91 -32 150 10 37 26 52 31 64 23 24 -14
70 -3 110 26 19 15 37 30 38 34 2 5 29 -18 60 -50 32 -32 98 -85 147 -118 50
-33 110 -75 135 -92 51 -36 203 -91 335 -122 104 -24 262 -29 340 -9 62 15
150 53 159 68 21 33 20 -1 -1 -104 -15 -78 -29 -123 -43 -137 -34 -37 -43 -92
-30 -179 12 -74 11 -80 -13 -141 -32 -79 -50 -218 -41 -318 6 -74 5 -78 -30
-148 -89 -176 -124 -311 -171 -659 -15 -112 -28 -179 -37 -184 -62 -38 -100
-81 -133 -147 -99 -200 -110 -436 -33 -682 30 -94 92 -229 130 -283 19 -27 20
-31 5 -80 -9 -29 -21 -94 -26 -145 -8 -73 -15 -99 -35 -125 -73 -95 -78 -238
-15 -455 16 -57 36 -119 44 -138 8 -19 11 -34 7 -34 -11 0 -246 178 -317 240
-84 73 -274 260 -359 355 -348 384 -670 907 -956 1550 -104 236 -198 479 -205
532 -8 60 -25 89 -49 80 -12 -5 -16 -20 -16 -68 0 -47 10 -91 46 -193 242
-683 570 -1280 1000 -1821 143 -180 398 -440 546 -558 477 -380 1015 -588
1553 -599 119 -3 130 -1 133 15 2 10 1 29 -2 41 -5 22 -13 24 -143 35 -152 14
-345 47 -497 86 -54 14 -101 25 -105 25 -3 0 10 11 29 24 20 13 41 35 49 49 7
14 25 27 41 30 37 8 109 64 142 112 30 44 82 192 94 270 4 28 8 84 9 125 1 41
5 109 9 150 6 58 4 79 -6 93 -13 18 -6 23 99 77 159 82 246 142 335 232 l77
77 13 -57 c7 -31 12 -104 12 -162 -2 -93 -9 -131 -59 -325 -72 -278 -77 -352
-45 -670 12 -121 24 -285 26 -365 l4 -145 41 -52 c22 -28 66 -71 96 -95 30
-24 61 -49 68 -55 16 -15 8 -53 -13 -69 -18 -13 -8 -75 39 -243 33 -120 36
-177 12 -251 -14 -45 -15 -62 -5 -121 16 -90 15 -104 -4 -145 -55 -117 59
-358 218 -461 338 -219 726 -154 877 147 50 100 72 224 46 263 -23 35 -53 44
-71 20 -13 -16 -14 -13 -8 37 7 65 10 69 28 45 12 -16 15 -14 37 31 39 79 33
158 -24 321 -25 72 -48 156 -52 186 -8 64 -30 90 -75 89 -25 -1 -30 3 -30 21
1 18 18 30 88 64 95 46 171 106 227 182 l36 50 -21 33 c-24 40 -26 134 -4 223
17 71 46 553 34 575 -5 9 -15 52 -24 95 -8 44 -20 94 -26 110 -17 45 -29 178
-17 193 16 20 1 315 -19 387 -18 62 -22 176 -15 370 1 55 0 169 -5 253 -5 115
-4 156 5 161 7 4 18 65 26 142 9 74 26 211 40 304 77 543 91 707 75 918 -12
156 -43 329 -66 365 -11 16 -24 22 -52 22 l-37 0 62 35 c34 20 65 45 68 56 4
12 4 78 0 148 -9 171 -9 171 90 175 112 4 267 59 410 144 121 73 172 115 213
176 17 24 36 41 48 42 52 3 193 125 275 239 62 86 128 228 134 290 2 17 15 57
30 89 25 56 27 58 40 39 17 -25 74 -53 107 -53 34 0 71 43 107 123 17 37 33
67 36 67 4 0 21 -11 40 -25 54 -42 92 -43 143 -3 52 42 82 84 82 118 0 26 56
80 83 80 24 0 143 134 171 193 14 31 26 72 26 91 0 33 2 36 29 36 21 0 45 -14
84 -50 99 -91 127 -177 133 -410 l4 -165 29 -18 c52 -32 61 -18 61 97 0 186
-33 363 -83 446 -58 97 -120 150 -182 155 -62 5 -117 34 -200 105 -97 84 -141
103 -216 98 l-59 -4 0 33 c0 43 -21 84 -60 117 -37 30 -85 34 -131 10 -34 -17
-63 -72 -48 -91 15 -18 -6 -25 -34 -12 -21 10 -30 8 -56 -10 -17 -12 -62 -35
-102 -51 -39 -17 -87 -39 -106 -51 -41 -26 -83 -85 -83 -119 -1 -40 -35 -106
-104 -199 -75 -101 -103 -154 -112 -211 -8 -49 -46 -74 -109 -71 -33 1 -55 -8
-119 -48 -106 -68 -128 -75 -155 -50 -26 24 -27 59 -2 90 31 41 32 61 1 129
-18 40 -25 69 -20 75 12 15 3 45 -85 300 -40 116 -76 232 -80 260 -7 53 -29
105 -45 105 -17 0 -23 42 -7 52 22 12 30 84 17 143 -6 28 -33 97 -59 155 -27
58 -52 116 -56 130 -11 36 -58 102 -107 150 -93 91 -217 139 -384 147 -61 3
-114 2 -117 -3 -3 -5 -33 -7 -66 -6 l-61 4 57 37 c118 77 215 202 313 403 63
128 70 160 45 188 -9 10 -13 25 -9 34 7 18 20 21 29 6 11 -17 76 -11 111 11
83 51 143 153 166 280 8 47 7 62 -7 90 -29 56 -22 102 32 193 50 85 49 81 42
216 -1 19 6 60 15 90 12 37 17 92 18 170 0 106 -2 122 -31 195 -57 148 -155
271 -232 290 -21 5 -30 20 -53 93 -35 107 -77 190 -119 230 -38 36 -185 130
-275 174 -79 38 -141 41 -230 10 -87 -31 -132 -28 -211 10 -62 31 -73 33 -191
35 -107 3 -136 0 -200 -20z m2884 -3612 c-10 -8 -23 -14 -29 -14 -5 0 -1 6 9
14 11 8 24 15 30 15 5 0 1 -7 -10 -15z m372 -236 c4 -8 1 -8 -14 0 -12 6 -24
16 -28 22 -4 8 -1 8 14 0 12 -6 24 -16 28 -22z m-6596 -835 c0 -7 17 -33 38
-56 23 -26 29 -37 16 -30 -11 6 -26 17 -32 25 -17 21 -45 90 -33 82 6 -3 11
-13 11 -21z m4708 -754 l0 -25 -8 25 c-4 14 -8 39 -8 55 l0 30 8 -30 c4 -16 8
-41 8 -55z m-3002 -2765 c8 -19 12 -35 10 -35 -6 0 -46 89 -46 99 1 9 19 -24
36 -64z m2359 -2985 c13 -6 5 -7 -25 -3 -25 3 -47 7 -49 9 -9 8 55 2 74 -6z
m273 -43 c20 -7 32 -18 32 -29 0 -16 -6 -15 -55 9 -30 15 -55 31 -55 36 0 8
17 5 78 -16z m13 -84 c-5 -10 -22 -29 -37 -43 -26 -23 -25 -22 5 18 34 43 49
55 32 25z m-771 -3 c0 -5 -2 -10 -4 -10 -3 0 -8 5 -11 10 -3 6 -1 10 4 10 6 0
11 -4 11 -10z m315 -178 c-33 -4 -132 15 -139 27 -3 4 34 0 82 -9 59 -10 77
-16 57 -18z"/>
<path d="M7467 7583 c-4 -3 -7 -34 -7 -67 0 -264 -98 -828 -210 -1211 -19 -68
-175 -580 -217 -715 -240 -773 -765 -1587 -1569 -2430 -112 -118 -151 -152
-207 -182 -90 -47 -105 -70 -73 -113 12 -17 17 -16 97 31 66 39 119 85 264
229 318 316 536 595 1005 1285 123 181 167 257 230 390 413 882 653 1698 751
2545 10 93 19 178 19 187 0 34 -62 72 -83 51z"/>
<path d="M2125 2364 c-15 -23 -14 -27 11 -75 61 -112 161 -167 359 -200 134
-22 215 -21 270 1 l30 13 -45 14 c-25 7 -133 32 -240 55 -116 25 -206 49 -222
60 -16 11 -48 48 -73 83 -54 75 -68 82 -90 49z"/>
<path d="M2022 2048 c-18 -18 -15 -35 17 -81 48 -70 136 -146 208 -180 57 -26
83 -32 161 -35 106 -5 161 7 229 50 67 43 48 53 -68 38 -150 -20 -296 3 -367
57 -18 14 -56 56 -85 94 -51 68 -72 80 -95 57z"/>
<path d="M4945 240 c-86 -42 -171 -69 -239 -76 -55 -7 -58 -6 -52 13 4 13 0
26 -13 37 -19 17 -23 17 -102 -14 -84 -32 -300 -93 -307 -86 -2 3 2 14 8 26
34 64 -73 69 -224 9 -71 -28 -116 -39 -141 -37 l-37 3 21 27 c12 14 21 38 21
52 0 20 -7 27 -36 35 -46 13 -88 -1 -176 -56 -90 -57 -104 -60 -133 -29 -32
34 -60 33 -179 -5 -92 -30 -146 -59 -146 -80 0 -5 11 -14 25 -19 19 -7 39 -5
78 10 63 24 95 25 118 4 10 -9 38 -19 61 -21 47 -5 67 2 178 62 80 43 104 45
67 7 l-28 -29 21 -26 c32 -40 76 -43 167 -13 100 33 127 33 161 -1 24 -25 34
-28 92 -27 50 0 87 9 161 38 l96 38 48 -17 c42 -14 61 -14 144 -4 53 6 119 19
146 30 28 10 86 28 130 39 120 32 185 59 185 79 0 16 -40 62 -51 60 -2 0 -31
-14 -64 -29z"/>
</g>
</svg>
