<?xml version="1.0" standalone="no"?>
<!DOCTYPE svg PUBLIC "-//W3C//DTD SVG 20010904//EN"
 "http://www.w3.org/TR/2001/REC-SVG-20010904/DTD/svg10.dtd">
<svg version="1.0" xmlns="http://www.w3.org/2000/svg"
 width="918.000000pt" height="1280.000000pt" viewBox="0 0 918.000000 1280.000000"
 preserveAspectRatio="xMidYMid meet">
<metadata>
Created by potrace 1.15, written by Peter Selinger 2001-2017
</metadata>
<g transform="translate(0.000000,1280.000000) scale(0.100000,-0.100000)"
fill="#000000" stroke="none">
<path d="M5720 12790 c-72 -5 -120 -13 -152 -28 -86 -38 -177 -137 -275 -302
-28 -47 -62 -95 -75 -107 -36 -33 -91 -43 -238 -43 -231 0 -379 -24 -463 -74
-43 -26 -58 -44 -97 -116 -142 -263 -312 -466 -599 -715 -56 -49 -143 -137
-192 -195 -48 -58 -147 -159 -219 -225 -136 -125 -185 -185 -196 -240 -7 -40
17 -138 51 -205 l26 -51 42 33 c92 71 202 195 256 286 66 114 130 175 321 306
248 170 281 196 425 336 77 74 210 197 296 272 86 76 168 153 183 172 14 19
42 72 61 117 47 112 78 142 113 107 20 -20 14 -50 -27 -135 -78 -160 -85 -190
-78 -321 10 -193 44 -266 159 -343 92 -62 148 -108 148 -124 0 -32 -44 -39
-315 -46 -433 -13 -565 -39 -760 -148 -49 -28 -130 -67 -180 -87 -202 -80
-281 -140 -433 -327 -106 -131 -303 -392 -394 -522 -87 -124 -171 -195 -383
-322 -109 -66 -376 -205 -382 -200 -2 2 2 39 8 83 15 102 5 258 -21 354 -43
153 -123 257 -280 361 -96 64 -153 91 -225 107 -73 16 -348 23 -435 11 -219
-31 -459 -156 -581 -304 -61 -73 -88 -135 -109 -246 -10 -54 -24 -108 -30
-120 -12 -21 -12 -21 -44 10 -73 71 -81 43 -81 -274 0 -219 3 -270 18 -325 34
-124 61 -168 167 -271 250 -244 407 -314 700 -313 220 1 365 28 725 139 500
154 571 193 1125 624 228 177 568 449 648 519 74 64 57 73 156 -88 139 -228
158 -283 215 -618 76 -442 76 -503 1 -761 -87 -303 -158 -431 -403 -734 -167
-206 -429 -555 -526 -699 -39 -58 -95 -151 -125 -206 -62 -116 -100 -172 -361
-527 -321 -436 -466 -648 -529 -773 -15 -29 -73 -191 -131 -361 -158 -469
-193 -539 -385 -781 -106 -133 -237 -328 -303 -450 -66 -123 -100 -213 -152
-410 -53 -201 -130 -435 -240 -733 -73 -199 -84 -222 -256 -518 -99 -171 -187
-334 -196 -362 -42 -144 -138 -271 -284 -378 -279 -203 -350 -280 -364 -400
-4 -30 -16 -88 -26 -131 -10 -42 -19 -86 -19 -98 0 -41 28 -78 72 -94 75 -27
450 -60 688 -61 254 0 293 9 336 77 30 47 62 62 180 83 257 46 274 52 274 108
0 17 -18 86 -41 155 -64 197 -63 233 6 537 114 500 170 644 330 855 236 311
498 757 615 1050 42 104 110 311 110 335 0 13 403 501 574 695 198 226 295
318 431 413 508 354 924 695 1071 879 69 86 154 130 294 154 107 18 247 14
304 -10 48 -20 61 -51 106 -245 57 -249 75 -299 169 -486 157 -310 255 -451
377 -541 76 -57 159 -150 262 -294 110 -154 156 -235 260 -456 55 -115 117
-245 140 -289 l40 -80 -33 -115 c-66 -229 -78 -373 -49 -569 20 -139 34 -194
99 -387 80 -237 108 -396 109 -614 l0 -175 -81 -265 c-122 -395 -161 -568
-143 -630 22 -78 87 -154 253 -297 107 -93 110 -100 77 -178 -24 -55 -26 -125
-5 -164 20 -39 104 -113 172 -151 113 -64 274 -110 381 -110 199 1 432 138
432 254 0 40 -26 107 -132 341 -112 247 -172 394 -193 475 -13 51 -58 432 -86
730 -6 69 -9 152 -6 185 3 33 42 245 87 470 86 434 125 665 136 805 5 70 3
101 -14 165 -65 254 -148 805 -172 1150 -14 201 -50 349 -280 1140 -136 468
-152 534 -175 700 -53 387 -158 819 -225 925 -62 99 -80 241 -80 650 0 302 10
473 41 713 20 150 59 340 73 354 25 25 146 -178 339 -567 153 -309 560 -1019
705 -1230 97 -140 253 -348 307 -407 57 -65 187 -163 360 -273 191 -122 232
-156 321 -265 44 -55 84 -100 89 -100 55 0 9 237 -82 420 l-35 70 28 -26 c160
-145 325 -279 343 -279 6 0 14 12 17 26 13 50 -56 164 -223 372 -45 56 -80
102 -77 102 2 0 34 -25 71 -56 36 -31 93 -74 126 -95 95 -62 122 -49 92 41
-31 92 -196 299 -407 507 l-93 92 -182 47 c-100 26 -186 50 -190 53 -5 3 -44
107 -86 231 -255 749 -265 777 -334 915 -95 190 -184 397 -233 543 -31 94 -43
147 -51 234 -13 155 -24 220 -64 385 -42 169 -102 347 -157 463 -33 69 -55 99
-117 159 -141 137 -371 314 -544 419 l-94 58 28 34 c18 21 42 76 65 150 l36
116 41 15 c51 17 87 67 87 119 0 55 -36 162 -90 270 l-48 96 16 54 c10 37 16
98 16 185 0 126 -1 134 -43 265 -71 224 -136 334 -246 417 -71 55 -132 83
-240 111 -91 24 -359 73 -390 70 -11 0 -67 -4 -125 -8z"/>
</g>
</svg>
