<?xml version="1.0" standalone="no"?>
<!DOCTYPE svg PUBLIC "-//W3C//DTD SVG 20010904//EN"
 "http://www.w3.org/TR/2001/REC-SVG-20010904/DTD/svg10.dtd">
<svg version="1.0" xmlns="http://www.w3.org/2000/svg"
 width="640.000000pt" height="1280.000000pt" viewBox="0 0 640.000000 1280.000000"
 preserveAspectRatio="xMidYMid meet">
<metadata>
Created by potrace 1.15, written by Peter Selinger 2001-2017
</metadata>
<g transform="translate(0.000000,1280.000000) scale(0.100000,-0.100000)"
fill="#000000" stroke="none">
<path d="M1295 12788 c-182 -22 -237 -43 -340 -125 -178 -144 -285 -368 -285
-597 0 -156 40 -279 134 -410 77 -108 229 -236 356 -301 19 -10 37 -19 39 -21
2 -2 -6 -15 -18 -30 -27 -34 -28 -113 -2 -169 10 -22 42 -66 71 -98 l53 -58
-40 -42 c-152 -158 -360 -475 -460 -700 -180 -405 -206 -762 -92 -1277 29
-131 101 -362 156 -499 l46 -115 -12 -105 c-27 -241 -76 -630 -151 -1191 -148
-1115 -198 -1515 -240 -1920 -29 -289 -22 -264 -88 -308 -68 -45 -125 -72
-152 -72 -23 0 -25 -9 -40 -140 -15 -126 -26 -172 -57 -236 -22 -46 -24 -57
-14 -82 7 -16 16 -66 21 -113 7 -78 6 -88 -18 -144 -20 -46 -26 -82 -30 -156
-5 -118 5 -152 65 -219 l45 -50 -13 -106 c-11 -101 -10 -231 7 -484 l7 -95
-39 -25 c-26 -17 -48 -44 -68 -84 l-29 -59 19 -35 c22 -41 82 -88 123 -97 l29
-6 4 -127 c4 -98 10 -143 29 -197 32 -95 92 -182 154 -223 59 -39 479 -249
820 -411 407 -194 615 -311 818 -464 105 -79 108 -82 105 -117 -2 -28 -9 -38
-36 -52 -19 -9 -36 -18 -38 -21 -8 -8 67 -192 106 -258 21 -36 59 -88 83 -115
l44 -49 -8 -70 c-15 -129 15 -354 57 -417 26 -40 90 -82 142 -93 88 -18 178
31 245 133 86 130 126 231 172 430 13 53 23 71 59 107 57 55 135 214 210 429
31 88 55 160 53 162 -2 2 -39 20 -82 40 -211 96 -396 144 -562 144 l-99 0
-103 110 c-162 174 -378 345 -551 436 l-66 34 -17 123 c-20 144 -48 241 -105
357 -36 73 -42 95 -42 148 0 67 31 152 56 152 7 0 95 -20 196 -44 404 -98 622
-134 853 -143 172 -6 309 5 460 36 l90 19 80 -33 c118 -48 240 -91 325 -115
81 -22 261 -53 268 -45 3 3 9 50 13 106 9 117 34 177 89 220 35 26 36 26 130
18 132 -12 493 -16 622 -6 l106 8 7 -39 c15 -88 99 -157 252 -207 l63 -20 305
-365 c299 -357 307 -365 358 -382 188 -61 314 48 335 290 4 48 4 143 1 212
-11 206 -61 312 -226 478 -102 103 -103 104 -114 169 -28 159 -201 399 -331
459 -56 26 -73 29 -158 28 -109 -1 -175 -21 -280 -83 l-65 -38 -100 11 c-109
13 -136 24 -313 129 -170 101 -292 137 -461 137 l-98 0 -12 39 c-28 95 -103
223 -170 291 -112 114 -293 187 -399 160 -53 -13 -132 -58 -218 -125 l-58 -45
-29 27 c-67 64 -154 189 -345 498 -176 285 -291 447 -410 576 l-61 66 15 214
c7 118 18 257 23 309 16 158 -12 355 -70 486 -12 27 -21 61 -21 76 1 52 64
255 107 344 36 75 56 103 115 157 102 94 121 95 226 15 46 -34 53 -44 59 -86
22 -149 151 -412 320 -647 45 -62 59 -91 70 -147 70 -332 215 -626 443 -899
44 -52 163 -176 265 -275 120 -117 192 -195 207 -224 69 -137 160 -230 349
-354 69 -46 140 -98 157 -117 17 -19 75 -103 129 -187 54 -84 103 -151 109
-149 6 3 10 9 9 14 -1 5 -16 65 -33 132 -17 68 -29 126 -26 128 3 3 53 -22
111 -56 59 -33 109 -61 111 -61 17 0 -5 42 -48 94 -91 107 -87 101 -58 86 14
-7 65 -35 113 -63 49 -27 91 -47 93 -44 9 9 -23 61 -58 93 -18 17 -58 49 -89
72 -86 62 -109 94 -109 152 0 38 7 58 35 100 19 29 35 53 35 55 0 1 -31 0 -70
-3 -81 -6 -114 10 -125 58 -6 27 -10 30 -48 30 -67 1 -132 29 -283 124 l-142
89 -275 621 c-151 342 -299 677 -328 746 -113 270 -232 477 -364 631 l-42 49
-6 188 c-6 175 -31 396 -57 494 -36 135 -102 254 -251 457 -147 199 -164 210
-331 218 -124 7 -118 -1 -118 135 0 170 36 258 155 383 133 138 263 330 306
450 74 209 -24 473 -236 632 -155 117 -334 149 -510 91 -76 -25 -181 -86 -221
-130 -61 -66 -137 -171 -160 -222 -42 -94 -84 -397 -84 -613 l0 -133 -34 0
c-18 0 -47 -3 -64 -6 -28 -6 -31 -3 -42 32 -18 55 -86 189 -128 253 -46 69
-134 164 -176 190 l-32 20 -12 133 c-6 73 -19 162 -28 198 -18 71 -77 205
-124 282 l-30 49 43 62 c117 166 259 499 411 959 l72 217 169 189 c94 104 181
195 194 201 20 10 23 17 18 47 -3 19 -22 57 -43 85 l-36 50 49 52 c243 257
248 585 13 864 -92 110 -230 207 -365 259 -129 49 -241 61 -390 42z"/>
</g>
</svg>
