<svg id="Capa_1" enable-background="new 0 0 512 512" height="512" viewBox="0 0 512 512" width="512" xmlns="http://www.w3.org/2000/svg"><g><g><path d="m397.626 503-3.561 9h-188.052c-2.503 0-4.645-1.796-5.082-4.26l-13.237-74.678s-64.51 15.719-80.709-27.047c-9.747-25.732-23.265-97.955-23.265-97.955h-30.757c-8.663 0-14.544-8.801-11.218-16.8 14.112-33.951 45.195-109.18 51.771-128.908 8.396-25.188 28.046-156.822 170.417-162.183 2.966-.112 6.026-.048 9.094.129 142.182 8.166 279.092 142.585 108.615 389.662z" fill="#ffc89f"/><g><path d="m272.991 0c-3.08 0-6.085.078-9.057.19 146.511 5.685 276.81 142.511 111.702 383.322-.742 1.082-1.049 2.409-.849 3.705l19.279 124.783h12.561c3.165 0 5.584-2.822 5.101-5.949l-18.672-120.852c170.477-247.077 30.54-385.199-120.065-385.199z" fill="#f7bc94"/></g><path d="m141.082 194.433c0-30.747 9.904-59.181 26.696-82.285 23.763-32.697 147.159-50.736 161.596-43.681 44.416 21.706 82.93 67.567 82.93 125.966 0 77.381-76.352 138.742-128.456 139.539-3.121.048-8.875.47-11.946.269-3.468-.227-6.902-.58-10.296-1.055l-81.928-42.182c-23.917-25.134-38.596-59.138-38.596-96.571z" fill="#8bcaff"/><path d="m179.679 291.002c3.146-5.112 7.314-9.783 12.788-12.571 17.599-8.964 30.506-23.716 43.412-13.993s-4.307 27.909 9.579 37.295c10.097 6.825 21.204 20.159 16.149 31.442-32.064-4.486-60.652-19.814-81.928-42.173z" fill="#aee295"/><path d="m285.313 55.356c20.888 2.501 40.509 9.549 40.509 9.549l-.633 4.145c-13.73 2.025-32.04 5.887-32.406 12.106-.587 9.973 55.144 23.466 47.319 41.065-6.512 14.645-47.019-19.459-58.609-12.956s20.676 18.565 4.25 40.106-34.016 30.485-37.834 54.172-26.984 32.486-37.843 16.061c-6.422-9.714-1.173-55.145-21.119-75.09-9.291-9.291-16.156-21.009-21.162-32.359 23.763-32.696 61.313-54.725 104.116-57.528 3.072-.203 10.706.405 13.412.729z" fill="#aee295"/><path d="m325.985 319.429-.011.001c-.003-.002-.005-.004-.008-.006-16.422 8.339-34.706 13.538-54.064 14.806 3.072.201 6.168.314 9.29.314 19.598 0 38.253-4.03 55.19-11.296l-1.903-4.044z" fill="#71bff4"/><path d="m331.368 222.046c12.789 6.202 28.684-13.492 52.577-17.825 7.252-1.315 13.366-.587 18.364 1.064l6.233 11.807c-5.683 39.779-42.257 89.904-69.969 100.814l-12.6 1.524c-9.425-7.039-13.939-22.493-5.612-35.378 11.02-17.052-23.099-22.026-24.52-44.762-1.42-22.735 22.738-23.446 35.527-17.244z" fill="#aee295"/><path d="m402.308 205.29c-3.827 49.941-33.839 92.55-76.329 114.135 3.046 2.275 6.6 3.677 10.404 3.824 43.081-18.482 75.022-57.941 82.984-105.528-.227-.345-5.828-8.719-17.059-12.431z" fill="#98db7c"/><path d="m340.084 67.274s.001 0 0 0c-.161.014-10.443-1.349-10.443-1.349s-4.46 3.13-4.452 3.125c-.003.001-.006.003-.008.004 45.971 22.981 77.542 70.487 77.542 125.379 0 3.652-.145 7.269-.419 10.851.002 0 .004.001.005.002l.004.006c-.004-.004 6.122 11.254 6.122 11.254l10.932 1.174c1.267-7.575 1.937-15.352 1.937-23.286 0-56.345-33.264-104.912-81.22-127.16z" fill="#71bff4"/><g><g><g><path d="m340.085 67.274c-17.905-8.307-37.855-12.952-58.892-12.952-3.13 0-6.233.111-9.311.313 19.062 1.246 37.081 6.3 53.308 14.415 8.107-1.196 14.62-1.752 14.895-1.776z" fill="#98db7c"/></g></g></g></g></g></svg>