<svg id="Layer_1" enable-background="new 0 0 512 512" height="512" viewBox="0 0 512 512" width="512" xmlns="http://www.w3.org/2000/svg"><g><path d="m405.013 512h-359.244c-8.284 0-15-6.716-15-15v-482c0-8.284 6.716-15 15-15h359.244c8.284 0 15 6.716 15 15v482c0 8.284-6.716 15-15 15z" fill="#f4f1f1"/><path d="m405.013 0h-179.622v512h179.622c8.284 0 15-6.716 15-15v-482c0-8.284-6.716-15-15-15z" fill="#e7dfdd"/><path d="m206.046 96.087h-92.846c-8.284 0-15-6.716-15-15s6.716-15 15-15h92.846c8.284 0 15 6.716 15 15s-6.716 15-15 15z" fill="#38336b"/><path d="m206.046 397.113h-92.846c-8.284 0-15-6.716-15-15s6.716-15 15-15h92.846c8.284 0 15 6.716 15 15s-6.716 15-15 15z" fill="#38336b"/><path d="m337.525 451.218h-56.102c-8.284 0-15-6.716-15-15s6.716-15 15-15h56.102c8.284 0 15 6.716 15 15s-6.716 15-15 15z" fill="#2e2654"/><g fill="#38336b"><path d="m264.609 156.292h-151.409c-8.284 0-15-6.716-15-15s6.716-15 15-15h151.409c8.284 0 15 6.716 15 15s-6.716 15-15 15z"/><path d="m266.613 216.498h-153.413c-8.284 0-15-6.716-15-15s6.716-15 15-15h153.413c8.284 0 15 6.716 15 15s-6.716 15-15 15z"/><path d="m265.611 276.703h-152.411c-8.284 0-15-6.716-15-15s6.716-15 15-15h152.411c8.284 0 15 6.716 15 15s-6.716 15-15 15z"/><path d="m251.998 336.908h-138.798c-8.284 0-15-6.716-15-15s6.716-15 15-15h138.798c8.284 0 15 6.716 15 15s-6.716 15-15 15z"/></g><path d="m279.609 141.292c0-8.284-6.716-15-15-15h-39.218v30h39.218c8.284 0 15-6.715 15-15z" fill="#2e2654"/><path d="m281.613 201.498c0-8.284-6.716-15-15-15h-41.222v30h41.222c8.284 0 15-6.716 15-15z" fill="#2e2654"/><path d="m265.611 246.703h-40.22v30h40.22c8.284 0 15-6.716 15-15s-6.716-15-15-15z" fill="#2e2654"/><path d="m251.998 336.908c8.284 0 15-6.716 15-15s-6.716-15-15-15h-26.607v30z" fill="#2e2654"/><path d="m479.957 326.623-44.01-99.884c-2.523-5.725-8.189-9.082-14.078-8.946l-127.406.338c-6.831-1.498-13.996 1.961-16.925 8.608l-44.01 99.884c-2.195 4.982-1.519 10.762 1.768 15.102 3.286 4.34 8.665 6.56 14.056 5.798l30.401-4.292 17.349 25.332c2.812 4.106 7.456 6.525 12.373 6.524.462 0 .927-.021 1.392-.065 5.42-.504 10.143-3.906 12.337-8.887l33.538-76.117 33.538 76.117c2.195 4.982 6.917 8.383 12.337 8.887.465.043.93.065 1.392.065 4.917 0 9.561-2.419 12.373-6.524l17.349-25.332 30.401 4.292c5.39.761 10.77-1.458 14.056-5.798 3.288-4.34 3.965-10.121 1.769-15.102z" fill="#45f6ff"/><path d="m454.227 135.81c-1.967-3.196-3.825-6.215-4.888-8.772-1.159-2.789-2.044-6.384-2.981-10.191-2.157-8.764-4.841-19.671-13.117-27.947-8.275-8.275-19.183-10.96-27.947-13.117-3.807-.937-7.402-1.822-10.191-2.981-2.558-1.063-5.576-2.921-8.772-4.888-7.777-4.787-17.455-10.744-29.593-10.744s-21.817 5.958-29.594 10.744c-3.196 1.967-6.214 3.825-8.771 4.888-2.789 1.159-6.384 2.044-10.191 2.981-8.764 2.157-19.671 4.842-27.946 13.117-8.276 8.276-10.96 19.184-13.118 27.948-.937 3.806-1.822 7.402-2.98 10.19-1.063 2.557-2.921 5.576-4.888 8.772-4.787 7.777-10.744 17.456-10.744 29.594s5.958 21.817 10.744 29.594c1.967 3.196 3.825 6.215 4.888 8.771 1.159 2.789 2.044 6.384 2.981 10.19 2.157 8.764 4.842 19.672 13.117 27.947s19.183 10.96 27.947 13.117c3.807.937 7.402 1.822 10.191 2.981 2.558 1.063 5.576 2.921 8.772 4.888 7.777 4.787 17.456 10.744 29.594 10.744s21.816-5.957 29.593-10.744c3.196-1.967 6.214-3.825 8.771-4.888 2.789-1.159 6.384-2.044 10.191-2.981 8.764-2.157 19.672-4.842 27.947-13.117s10.96-19.182 13.117-27.947c.937-3.807 1.822-7.402 2.981-10.191 1.063-2.557 2.921-5.576 4.888-8.772 4.787-7.777 10.744-17.456 10.744-29.594s-5.958-21.815-10.745-29.592z" fill="#ffda2c"/><circle cx="356.739" cy="165.404" fill="#ff0059" r="51.819"/><path d="m479.957 326.623-44.01-99.884c-2.523-5.725-8.189-9.082-14.078-8.946l-127.406.338c-6.831-1.498-13.996 1.961-16.925 8.608l-44.01 99.884c-2.195 4.982-1.519 10.762 1.768 15.102 3.286 4.34 8.665 6.56 14.056 5.798l30.401-4.292 17.349 25.332c2.812 4.106 7.456 6.525 12.373 6.524.462 0 .927-.021 1.392-.065 5.42-.504 10.143-3.906 12.337-8.887l33.538-76.117 33.538 76.117c2.195 4.982 6.917 8.383 12.337 8.887.465.043.93.065 1.392.065 4.917 0 9.561-2.419 12.373-6.524l17.349-25.332 30.401 4.292c5.39.761 10.77-1.458 14.056-5.798 3.288-4.34 3.965-10.121 1.769-15.102z" fill="#5ecbf1"/><path d="m479.957 326.623-44.01-99.884c-2.523-5.725-8.189-9.082-14.078-8.946l-65.131.173v72.062l.004-.01 33.538 76.117c2.195 4.982 6.917 8.383 12.337 8.887.465.043.93.065 1.392.065 4.917 0 9.561-2.419 12.373-6.524l17.349-25.332 30.401 4.292c5.39.761 10.77-1.458 14.056-5.798 3.288-4.34 3.965-10.121 1.769-15.102z" fill="#4793ff"/><path d="m454.227 135.81c-1.967-3.196-3.825-6.215-4.888-8.772-1.159-2.789-2.044-6.384-2.981-10.191-2.157-8.764-4.841-19.671-13.117-27.947-8.275-8.275-19.183-10.96-27.947-13.117-3.807-.937-7.402-1.822-10.191-2.981-2.558-1.063-5.576-2.921-8.772-4.888-7.777-4.787-17.455-10.744-29.593-10.744s-21.817 5.958-29.594 10.744c-3.196 1.967-6.214 3.825-8.771 4.888-2.789 1.159-6.384 2.044-10.191 2.981-8.764 2.157-19.671 4.842-27.946 13.117-8.276 8.276-10.96 19.184-13.118 27.948-.937 3.806-1.822 7.402-2.98 10.19-1.063 2.557-2.921 5.576-4.888 8.772-4.787 7.777-10.744 17.456-10.744 29.594s5.958 21.817 10.744 29.594c1.967 3.196 3.825 6.215 4.888 8.771 1.159 2.789 2.044 6.384 2.981 10.19 2.157 8.764 4.842 19.672 13.117 27.947s19.183 10.96 27.947 13.117c3.807.937 7.402 1.822 10.191 2.981 2.558 1.063 5.576 2.921 8.772 4.888 7.777 4.787 17.456 10.744 29.594 10.744s21.816-5.957 29.593-10.744c3.196-1.967 6.214-3.825 8.771-4.888 2.789-1.159 6.384-2.044 10.191-2.981 8.764-2.157 19.672-4.842 27.947-13.117s10.96-19.182 13.117-27.947c.937-3.807 1.822-7.402 2.981-10.191 1.063-2.557 2.921-5.576 4.888-8.772 4.787-7.777 10.744-17.456 10.744-29.594s-5.958-21.815-10.745-29.592z" fill="#ffda2c"/><path d="m454.227 135.81c-1.967-3.196-3.825-6.215-4.888-8.772-1.159-2.789-2.044-6.384-2.981-10.191-2.157-8.764-4.841-19.671-13.117-27.947-8.275-8.275-19.183-10.96-27.947-13.117-3.807-.937-7.402-1.822-10.191-2.981-2.558-1.063-5.576-2.921-8.772-4.888-7.777-4.787-17.455-10.744-29.593-10.744v216.467c12.138 0 21.816-5.957 29.593-10.744 3.196-1.967 6.214-3.825 8.771-4.888 2.789-1.159 6.384-2.044 10.191-2.981 8.764-2.157 19.672-4.842 27.947-13.117s10.96-19.182 13.117-27.947c.937-3.807 1.822-7.402 2.981-10.191 1.063-2.557 2.921-5.576 4.888-8.772 4.787-7.777 10.744-17.456 10.744-29.594s-5.956-21.816-10.743-29.593z" fill="#febf00"/><circle cx="356.739" cy="165.404" fill="#ff0059" r="51.819"/><path d="m408.558 165.404c0-28.573-23.246-51.819-51.819-51.819v103.639c28.573-.001 51.819-23.247 51.819-51.82z" fill="#d20041"/></g></svg>