<?xml version="1.0" encoding="iso-8859-1"?>
<!-- Uploaded to: SVG Repo, www.svgrepo.com, Generator: SVG Repo Mixer Tools -->
<!DOCTYPE svg PUBLIC "-//W3C//DTD SVG 1.1//EN" "http://www.w3.org/Graphics/SVG/1.1/DTD/svg11.dtd">
<svg fill="#000000" height="800px" width="800px" version="1.1" id="Capa_1" xmlns="http://www.w3.org/2000/svg" xmlns:xlink="http://www.w3.org/1999/xlink" 
	 viewBox="0 0 486.773 486.773" xml:space="preserve">
<g>
	<path d="M486.44,121.532c-0.803-2.47-2.938-4.269-5.506-4.642l-38.2-5.552L425.65,76.724c-1.149-2.328-3.52-3.802-6.116-3.802
		c-2.597,0-4.967,1.474-6.116,3.802l-17.083,34.615l-38.2,5.552c-2.568,0.373-4.703,2.172-5.505,4.642
		c-0.803,2.469-0.134,5.179,1.726,6.99l27.642,26.944l-6.525,38.045c-0.439,2.559,0.612,5.145,2.714,6.671
		c2.1,1.525,4.884,1.727,7.182,0.519l34.167-17.962l34.167,17.962c2.298,1.208,5.082,1.007,7.182-0.519
		c2.102-1.526,3.152-4.112,2.714-6.671l-6.525-38.045l27.642-26.944C486.572,126.711,487.24,124.001,486.44,121.532z"/>
	<path d="M421.683,212.112v156.957c0,2.357-0.662,4.506-1.641,6.487L314.513,270.02l49.358-49.357
		c-0.124-0.088-0.254-0.163-0.377-0.252c-9.181-6.668-14.012-17.448-12.986-28.601L230.375,311.943
		c-2.463,2.463-6.749,2.463-9.213,0L57.337,148.112h281.3l-1.729-1.686c-7.632-7.438-10.95-17.911-9.16-28.168H44.779
		C20.087,118.259,0,138.346,0,163.039v206.03c0,24.693,20.087,44.781,44.779,44.781h361.976c24.694,0,44.781-20.088,44.781-44.781
		V226.021c-3.296-0.563-6.505-1.633-9.468-3.19L421.683,212.112z M31.485,375.557c-0.97-1.981-1.631-4.131-1.631-6.487v-206.03
		c0-0.058,0.029-0.102,0.029-0.159l107.141,107.14L31.485,375.557z M65.26,383.997l92.872-92.869l41.922,41.924
		c6.874,6.872,16.007,10.654,25.714,10.654c9.709,0,18.841-3.782,25.715-10.654l41.924-41.924l92.86,92.869H65.26z"/>
</g>
</svg>