<?xml version="1.0" encoding="iso-8859-1"?>
<!-- Uploaded to: SVG Repo, www.svgrepo.com, Generator: SVG Repo Mixer Tools -->
<!DOCTYPE svg PUBLIC "-//W3C//DTD SVG 1.1//EN" "http://www.w3.org/Graphics/SVG/1.1/DTD/svg11.dtd">
<svg fill="#000000" height="800px" width="800px" version="1.1" id="Capa_1" xmlns="http://www.w3.org/2000/svg" xmlns:xlink="http://www.w3.org/1999/xlink" 
	 viewBox="0 0 423.439 423.439" xml:space="preserve">
<g>
	<circle cx="129.372" cy="235.052" r="46.77"/>
	<g>
		<path d="M129.372,136.349c-54.426,0-98.704,44.277-98.704,98.702c0,54.426,44.278,98.705,98.704,98.705
			c54.425,0,98.703-44.279,98.703-98.705C228.075,180.626,183.797,136.349,129.372,136.349z M129.372,317.401
			c-45.48,0-82.349-36.869-82.349-82.349s36.868-82.348,82.349-82.348c45.479,0,82.348,36.868,82.348,82.348
			S174.85,317.401,129.372,317.401z"/>
		<path d="M362.984,82.621h-9.169V54.888h-26v27.732h-16V54.888h-61v27.732h-36V70.421c0-19.005-15.461-34.466-34.467-34.466
			h-72.066c-19.006,0-34.467,15.461-34.467,34.466v12.199h-13.36C27.066,82.621,0,109.687,0,143.076v183.953
			c0,33.389,27.066,60.455,60.455,60.455h302.529c33.389,0,60.455-27.066,60.455-60.455V143.076
			C423.439,109.687,396.373,82.621,362.984,82.621z M98.815,70.421c0-5.22,4.246-9.466,9.467-9.466h72.066
			c5.221,0,9.467,4.246,9.467,9.466v12.199h-91V70.421z M129.372,340.322c-58.047,0-105.269-47.224-105.269-105.27
			c0-58.045,47.223-105.269,105.269-105.269c58.045,0,105.27,47.224,105.27,105.269
			C234.642,293.098,187.417,340.322,129.372,340.322z M358.642,157.122c0,6.438-5.218,11.655-11.654,11.655H326.13
			c-6.436,0-11.654-5.218-11.654-11.655v-20.856c0-6.437,5.218-11.655,11.654-11.655h20.858c6.436,0,11.654,5.219,11.654,11.655
			V157.122z"/>
	</g>
</g>
</svg>